<svg width="14" height="14" viewBox="0 0 14 14" fill="none" xmlns="http://www.w3.org/2000/svg">
<path d="M9.05512 5.33333H12.3885V4.22222C12.3885 3 11.3885 2 10.1662 2H3.49957C2.27734 2 1.27734 3 1.27734 4.22222V9.77778C1.27734 11 2.27734 12 3.49957 12H10.1662C11.3885 12 12.3885 11 12.3885 9.77778V8.66667H9.05512C8.44401 8.66667 7.94401 8.16667 7.94401 7.55555V6.44445C7.94401 5.83333 8.44401 5.33333 9.05512 5.33333Z" stroke="#212121" stroke-width="1.66667" stroke-miterlimit="10" stroke-linecap="round" stroke-linejoin="round"/>
<path d="M9.6122 7.55447C9.91902 7.55447 10.1678 7.30574 10.1678 6.99891C10.1678 6.69209 9.91902 6.44336 9.6122 6.44336C9.30537 6.44336 9.05664 6.69209 9.05664 6.99891C9.05664 7.30574 9.30537 7.55447 9.6122 7.55447Z" fill="#212121"/>
<path d="M12.3906 5.33398V8.66732" stroke="#212121" stroke-width="1.66667" stroke-miterlimit="10" stroke-linecap="round" stroke-linejoin="round"/>
</svg>
