<svg width="16" height="17" viewBox="0 0 16 17" fill="none" xmlns="http://www.w3.org/2000/svg">
<path fill-rule="evenodd" clip-rule="evenodd" d="M4.12848 15.8859L7.94387 13.8987L11.7593 15.8859C12.4934 16.2683 13.3478 15.6441 13.2065 14.8284L12.4803 10.6335L15.5481 7.6709C16.1463 7.09321 15.8191 6.08026 14.9959 5.96176L10.7475 5.35018L8.83896 1.51894C8.47091 0.780143 7.41684 0.780144 7.04879 1.51895L5.14021 5.35018L0.891812 5.96176C0.06869 6.08026 -0.258567 7.09321 0.339641 7.6709L3.40745 10.6335L2.6812 14.8284C2.53999 15.6441 3.39431 16.2683 4.12848 15.8859ZM11.4855 13.9996L7.94515 12.1556L4.40479 13.9996L5.08094 10.094L2.21673 7.32806L6.17497 6.75825L7.94515 3.20484L9.71534 6.75825L13.6736 7.32806L10.8094 10.094L11.4855 13.9996Z" fill="url(#paint0_linear_1013_1190)"/>
<defs>
<linearGradient id="paint0_linear_1013_1190" x1="7.94388" y1="0.964844" x2="7.94388" y2="16.0012" gradientUnits="userSpaceOnUse">
<stop stop-color="#252525"/>
<stop offset="1" stop-color="#2C2C2C"/>
</linearGradient>
</defs>
</svg>
